<?xml version="1.0" encoding="UTF-8" standalone="no"?>
<svg
   xmlns:dc="http://purl.org/dc/elements/1.1/"
   xmlns:cc="http://creativecommons.org/ns#"
   xmlns:rdf="http://www.w3.org/1999/02/22-rdf-syntax-ns#"
   xmlns:svg="http://www.w3.org/2000/svg"
   xmlns="http://www.w3.org/2000/svg"
   xmlns:sodipodi="http://sodipodi.sourceforge.net/DTD/sodipodi-0.dtd"
   xmlns:inkscape="http://www.inkscape.org/namespaces/inkscape"
   width="63px"
   height="63px"
   version="1.1"
   id="svg2"
   inkscape:version="0.48.5 r10040"
   sodipodi:docname="DataStore.svg">
  <metadata
     id="metadata14">
    <rdf:RDF>
      <cc:Work
         rdf:about="">
        <dc:format>image/svg+xml</dc:format>
        <dc:type
           rdf:resource="http://purl.org/dc/dcmitype/StillImage" />
      </cc:Work>
    </rdf:RDF>
  </metadata>
  <sodipodi:namedview
     pagecolor="#ffffff"
     bordercolor="#666666"
     borderopacity="1"
     objecttolerance="10"
     gridtolerance="10"
     guidetolerance="10"
     inkscape:pageopacity="0"
     inkscape:pageshadow="2"
     inkscape:window-width="1920"
     inkscape:window-height="1138"
     id="namedview12"
     showgrid="false"
     inkscape:zoom="3.7460317"
     inkscape:cx="-26.027543"
     inkscape:cy="31.5"
     inkscape:window-x="-8"
     inkscape:window-y="-8"
     inkscape:window-maximized="1"
     inkscape:current-layer="svg2" />
  <defs
     id="defs4" />
  <g
     id="g6"
     transform="translate(0.5,0.5)">
    <path
       d="M 1,9 C 1,-1.67 61,-1.67 61,9 l 0,44 C 61,63.67 1,63.67 1,53 z"
       stroke-miterlimit="10"
       pointer-events="none"
       id="path3048"
       inkscape:connector-curvature="0"
       style="fill:#ffffff;stroke:#000000;stroke-miterlimit:10"
       sodipodi:nodetypes="sssss" />
    <path
       d="M 1 9 C 1 17 61 17 61 9 M 1 13 C 1 21 61 21 61 13 M 1 17 C 1 25 61 25 61 17"
       stroke-miterlimit="10"
       pointer-events="none"
       id="path10"
       stroke="#000000"
       fill="none" />
    <path
       style="fill:none;stroke:none"
       d="m 25.3125,1.09375 -6.9375,0.8125 -0.03125,0 L 10.0625,3.25 10.03125,3.25 10,3.25 3.84375,5.125 3.75,5.15625 3.65625,5.25 1.5,7.375 1.40625,7.5 1.375,7.625 0.84375,9.75 l 0,0.0625 0,0.0625 0,44.59375 0,0.25 0.1875,0.15625 5.09375,3.71875 0.0625,0.0625 0.09375,0.03125 6.9375,1.84375 0.03125,0.03125 0.03125,0 7.75,0.8125 0.03125,0 9.09375,0.25 0.03125,0 11.75,-0.53125 0.03125,0 0.03125,0 13.59375,-2.125 0.125,-0.03125 0.09375,-0.0625 3.46875,-2.40625 0.03125,-0.03125 0.03125,0 L 62,54.03125 62.15625,53.875 l 0,-0.21875 -0.53125,-45.375 0,-0.25 L 61.4375,7.875 56.90625,4.15625 56.8125,4.0625 l -0.125,0 L 47.875,2.1875 47.84375,2.15625 36.875,1.09375 l -0.03125,0 -11.46875,0 -0.03125,0 -0.03125,0 z m 0.0625,1 0.03125,0 11.375,0 0.0625,0 10.84375,1.0625 0.0625,0 L 56.34375,5 60.625,8.5 l 0.53125,44.9375 -2.4375,2.21875 -0.0625,0.03125 -3.28125,2.28125 -13.5,2.125 -0.03125,0 -11.65625,0.53125 -0.03125,0 -9.03125,-0.25 -0.03125,0 -7.6875,-0.8125 L 6.71875,57.78125 6.6875,57.75 1.84375,54.21875 1.84375,9.875 2.3125,8 4.25,6.0625 l 5.96875,-1.84375 0.0625,0 8.1875,-1.3125 0.03125,0 6.875,-0.8125 z"
       id="PapyrusPath"
       inkscape:connector-curvature="0" />
  </g>
</svg>
