<?xml version="1.0" encoding="UTF-8" standalone="no"?>
<svg
   xmlns:dc="http://purl.org/dc/elements/1.1/"
   xmlns:cc="http://creativecommons.org/ns#"
   xmlns:rdf="http://www.w3.org/1999/02/22-rdf-syntax-ns#"
   xmlns:svg="http://www.w3.org/2000/svg"
   xmlns="http://www.w3.org/2000/svg"
   xmlns:sodipodi="http://sodipodi.sourceforge.net/DTD/sodipodi-0.dtd"
   xmlns:inkscape="http://www.inkscape.org/namespaces/inkscape"
   width="53px"
   height="53px"
   version="1.1"
   id="svg2"
   inkscape:version="0.48.5 r10040"
   sodipodi:docname="IntermediateEvent.svg">
  <metadata
     id="metadata14">
    <rdf:RDF>
      <cc:Work
         rdf:about="">
        <dc:format>image/svg+xml</dc:format>
        <dc:type
           rdf:resource="http://purl.org/dc/dcmitype/StillImage" />
      </cc:Work>
    </rdf:RDF>
  </metadata>
  <sodipodi:namedview
     pagecolor="#ffffff"
     bordercolor="#666666"
     borderopacity="1"
     objecttolerance="10"
     gridtolerance="10"
     guidetolerance="10"
     inkscape:pageopacity="0"
     inkscape:pageshadow="2"
     inkscape:window-width="1920"
     inkscape:window-height="1138"
     id="namedview12"
     showgrid="false"
     inkscape:zoom="17.811321"
     inkscape:cx="22.840567"
     inkscape:cy="26.232846"
     inkscape:window-x="-8"
     inkscape:window-y="-8"
     inkscape:window-maximized="1"
     inkscape:current-layer="g6" />
  <defs
     id="defs4" />
  <g
     transform="translate(0.5,0.5)"
     id="g6">
    <path
       style="fill:#ffffff;stroke:#000000"
       d="M 51,26 C 51,39.807119 39.807119,51 26,51 12.192881,51 1,39.807119 1,26 1,12.192881 12.192881,1 26,1 39.807119,1 51,12.192881 51,26 z"
       id="ellipse8" />
    <ellipse
       cx="26"
       cy="26"
       rx="22"
       ry="22"
       fill="none"
       stroke="#000000"
       pointer-events="none"
       id="ellipse10"
       d="M 48,26 C 48,38.150264 38.150264,48 26,48 13.849736,48 4,38.150264 4,26 4,13.849736 13.849736,4 26,4 38.150264,4 48,13.849736 48,26 z" />
    <path
       style="fill:none;stroke:none"
       d="m 26.893009,1.3474576 8.253177,1.5158898 6.737289,3.6493644 2.863347,2.7510593 2.358051,2.9194919 1.740466,2.863347 1.403602,3.480932 1.122881,4.54767 0.112288,4.603813 -0.449152,3.930085 -1.066738,3.761653 -1.459745,3.256356 -2.358051,3.368644 -2.975636,3.144068 -2.975635,2.35805 -4.26695,2.133475 -3.649364,1.179025 -3.537076,0.617585 -3.424788,0.112288 L 20.661017,50.810381 16.5625,49.575212 13.25,47.89089 10.948093,46.150424 8.9830509,44.297669 6.9057203,41.995763 4.996822,39.188559 3.2002119,35.763771 1.7966102,31.103814 1.3474576,26.836864 1.628178,23.46822 2.1896186,20.043432 3.3686441,17.067797 4.940678,13.811441 6.8495763,10.891949 9.2637712,8.3654661 12.070975,6.0635593 14.709746,4.3792372 18.134534,2.9194915 21.559322,1.7966101 25.096398,1.6281779 z"
       id="PapyrusPath"
       inkscape:connector-curvature="0"
       transform="translate(-0.5,-0.5)" />
  </g>
</svg>
