<?xml version="1.0" encoding="UTF-8" standalone="no"?>
<svg
   xmlns:dc="http://purl.org/dc/elements/1.1/"
   xmlns:cc="http://creativecommons.org/ns#"
   xmlns:rdf="http://www.w3.org/1999/02/22-rdf-syntax-ns#"
   xmlns:svg="http://www.w3.org/2000/svg"
   xmlns="http://www.w3.org/2000/svg"
   xmlns:sodipodi="http://sodipodi.sourceforge.net/DTD/sodipodi-0.dtd"
   xmlns:inkscape="http://www.inkscape.org/namespaces/inkscape"
   width="2.0119894"
   height="1.7583696"
   version="1.1"
   id="svg2"
   inkscape:version="0.48.5 r10040"
   sodipodi:docname="ManualTask.svg">
  <metadata
     id="metadata12">
    <rdf:RDF>
      <cc:Work
         rdf:about="">
        <dc:format>image/svg+xml</dc:format>
        <dc:type
           rdf:resource="http://purl.org/dc/dcmitype/StillImage" />
      </cc:Work>
    </rdf:RDF>
  </metadata>
  <sodipodi:namedview
     pagecolor="#ffffff"
     bordercolor="#666666"
     borderopacity="1"
     objecttolerance="10"
     gridtolerance="10"
     guidetolerance="10"
     inkscape:pageopacity="0"
     inkscape:pageshadow="2"
     inkscape:window-width="997"
     inkscape:window-height="851"
     id="namedview10"
     showgrid="false"
     width="8px"
     inkscape:zoom="13.882353"
     inkscape:cx="1.5982334"
     inkscape:cy="7.8227815"
     inkscape:window-x="601"
     inkscape:window-y="73"
     inkscape:window-maximized="0"
     inkscape:current-layer="svg2"
     fit-margin-top="0"
     fit-margin-left="0"
     fit-margin-right="0"
     fit-margin-bottom="0"
     borderlayer="false" />
  <defs
     id="defs4" />
  <g
     transform="matrix(0.13413262,0,0,0.11771512,0.08802453,-0.01471439)"
     id="g6">
    <path
       d="M -0.17,3.94 C 0.12,2.33 0.94,1.08 1.98,0.64 l 5.51,0 c 0.34,0.22 0.55,0.73 0.55,1.3 0,0.56 -0.21,1.07 -0.55,1.29 l -3.67,0 9.34,0 c 0.41,0.26 0.67,0.86 0.67,1.54 0,0.68 -0.26,1.28 -0.67,1.54 l -6.43,0 6.43,0 c 0.41,0.25 0.67,0.85 0.67,1.53 0,0.68 -0.26,1.28 -0.67,1.54 l -5.82,0 5.05,0 c 0.51,0 0.92,0.63 0.92,1.41 0,0.78 -0.41,1.42 -0.92,1.42 l -5.2,0 4.13,0 c 0.42,0 0.77,0.53 0.77,1.18 0,0.65 -0.35,1.18 -0.77,1.18 l -10.11,0 C 0.89,14.64 0.56,14.5 0.3,14.19 0.04,13.88 -0.13,13.42 -0.17,12.92 z"
       stroke-miterlimit="10"
       pointer-events="none"
       id="path8"
       inkscape:connector-curvature="0"
       style="fill:#ffffff;stroke:#000000;stroke-miterlimit:10" />
  </g>
  <path
     style="opacity:0.50406506;color:#000000;fill:none;stroke:none;stroke-width:0.28180036;marker:none;visibility:visible;display:inline;overflow:visible;enable-background:accumulate"
     d="m -1.1294295,1.0309004 c -0.1888719,-0.04423 -0.3241525,-0.22432704 -0.3241525,-0.43153904 0,-0.09147 -0.032415,-0.166316 -0.072034,-0.166316 -0.039619,0 -0.072034,-0.113454 -0.072034,-0.252119 0,-0.138665 0.032415,-0.252119 0.072034,-0.252119 0.039619,0 0.072034,-0.145868 0.072034,-0.32415205 0,-0.178284 -0.032415,-0.324153 -0.072034,-0.324153 -0.039619,0 -0.072034,-0.113453 -0.072034,-0.252118 0,-0.13866601 0.032415,-0.25211901 0.072034,-0.25211901 0.039619,0 0.072034,-0.145869 0.072034,-0.324153 0,-0.178283 -0.032415,-0.324152 -0.072034,-0.324152 -0.039619,0 -0.072034,-0.113454 -0.072034,-0.252119 0,-0.138665 0.032415,-0.252118 0.072034,-0.252118 0.039619,0 0.072034,-0.129661 0.072034,-0.288136 0,-0.158475 -0.032415,-0.288136 -0.072034,-0.288136 -0.039619,0 -0.072034,-0.115366 -0.072034,-0.256369 0,-0.141004 0.028653,-0.238662 0.063674,-0.217018 0.072137,0.04458 0.2517997,-0.344971 0.2421137,-0.524965 -0.014729,-0.273696 0.1270701,-0.411738 0.43558033,-0.424041 0.1655665,-0.0066 0.3123062,-0.04583 0.3260882,-0.08718 0.03206,-0.09618 0.5172896,-0.09912 0.5172896,-0.0031 0,0.03962 0.1458687,0.07203 0.3241526,0.07203 0.1782839,0 0.3241525,-0.03242 0.3241525,-0.07203 0,-0.03962 0.1134534,-0.07203 0.2521187,-0.07203 0.13866517,0 0.25211857,0.02836 0.25211857,0.06303 0,0.03467 0.097246,0.08248 0.2161017,0.10625 0.2284313,0.04569 0.2543981,0.09087 0.1484549,0.258292 -0.054027,0.08538 -0.085107,0.0871 -0.1781921,0.0098 -0.1249408,-0.103692 -0.61856787,-0.04776 -0.61856787,0.07009 0,0.03782 -0.1134534,0.06877 -0.2521186,0.06877 -0.1386653,0 -0.2521187,-0.03242 -0.2521187,-0.07203 0,-0.03962 -0.1134534,-0.07203 -0.2521186,-0.07203 -0.2321092,0 -0.2521187,0.01715 -0.2521187,0.216102 0,0.118856 0.032415,0.216101 0.072034,0.216101 0.039619,0 0.072034,0.04862 0.072034,0.108051 0,0.06003 0.06403,0.108051 0.1440678,0.108051 0.079237,0 0.1440678,0.03242 0.1440678,0.07203 0,0.03962 0.1458687,0.07203 0.3241526,0.07203 0.1782839,0 0.3241525,-0.03242 0.3241525,-0.07203 0,-0.03962 0.1134534,-0.07203 0.25211867,-0.07203 0.1386652,0 0.2521186,0.03242 0.2521186,0.07203 0,0.03962 0.1458686,0.07203 0.3241525,0.07203 0.1901064,0 0.3241526,-0.03317 0.3241526,-0.08021 0,-0.05373 0.077282,-0.06209 0.2341102,-0.02531 0.1287605,0.0302 0.4853283,0.05057 0.7923728,0.04527 0.3250259,-0.0056 0.5582627,0.02002 0.5582627,0.06133 0,0.03903 0.1620763,0.07096 0.3601695,0.07096 0.3383732,0 0.3601695,0.01115 0.3601695,0.184336 0,0.104548 -0.031179,0.165066 -0.072034,0.139817 -0.039619,-0.02449 -0.072034,-0.01019 -0.072034,0.03177 0,0.04196 -0.064831,0.07628 -0.1440678,0.07628 -0.079237,0 -0.1440678,0.03464 -0.1440678,0.07698 0,0.0524 -0.1840509,0.06093 -0.5762712,0.02671 -0.5050895,-0.04406 -0.5762711,-0.03577 -0.5762711,0.06708 0,0.08237 -0.064421,0.117352 -0.2161017,0.117352 -0.1440678,0 -0.2161017,-0.03602 -0.2161017,-0.108051 0,-0.08004 -0.08404,-0.108051 -0.3241526,-0.108051 -0.2505022,0 -0.3241525,0.02646 -0.3241525,0.116448 0,0.08356 -0.048061,0.107261 -0.1701782,0.08392 -0.1967736,-0.03761 -0.3340591,0.131271 -0.3340591,0.410949 0,0.158906 0.030852,0.181062 0.2521187,0.181062 0.1386652,0 0.2521186,-0.03241 0.2521186,-0.07203 0,-0.03962 0.1134534,-0.07203 0.2521186,-0.07203 0.1386653,0 0.2521187,0.03242 0.2521187,0.07203 0,0.03962 0.129661,0.07203 0.2881356,0.07203 0.1584745,0 0.2881356,-0.02806 0.2881356,-0.06236 0,-0.03489 0.1348617,-0.03423 0.306144,0.0015 0.6711834,0.140019 0.8463983,0.153543 0.8463983,0.06533 0,-0.04853 0.071173,-0.07642 0.1620763,-0.06351 0.089142,0.01266 0.1539725,0.04733 0.1440678,0.07704 -0.0099,0.02971 -0.018008,0.183687 -0.018008,0.342162 0,0.259322 -0.018008,0.288135 -0.1800847,0.288135 -0.099047,0 -0.1800848,-0.03242 -0.1800848,-0.07203 0,-0.03962 -0.1458686,-0.07203 -0.3241525,-0.07203 -0.1782839,0 -0.3241525,0.03242 -0.3241525,0.07203 0,0.03962 -0.1134534,0.07203 -0.2521187,0.07203 -0.1386652,0 -0.2521186,-0.03242 -0.2521186,-0.07203 0,-0.107544 -0.1757444,-0.08844 -0.7271652,0.07905 l -0.4974111,0.151084 0,0.31713701 c 0,0.269113 0.021815,0.317136 0.1440678,0.317136 0.079237,0 0.1440678,-0.03242 0.1440678,-0.07203 0,-0.03962 0.1134534,-0.07203 0.2521186,-0.07203 0.1386653,0 0.2521187,0.03242 0.2521187,0.07203 0,0.03962 0.129661,0.07203 0.2881356,0.07203 0.1584745,0 0.2881356,-0.0268 0.2881356,-0.05956 0,-0.07584 0.4400171,-0.01683 0.5545915,0.07438 0.047504,0.03782 0.2257881,0.05858 0.3961865,0.04614 0.2648181,-0.01933 0.3128624,-0.0015 0.3307961,0.122746 0.016956,0.11747905 -0.023957,0.14878905 -0.2132725,0.16321405 -0.1288393,0.0098 -0.2547666,0.05104 -0.2798384,0.09161 -0.02914,0.04715 -0.2445544,0.05573 -0.5971089,0.02378 -0.3935076,-0.03566 -0.5515238,-0.02649 -0.5515238,0.03199 0,0.04566 -0.1116889,0.08197 -0.2521187,0.08197 -0.1386652,0 -0.2521186,-0.03242 -0.2521186,-0.07203 0,-0.03962 -0.129661,-0.07203 -0.2881356,-0.07203 -0.259322,0 -0.2881356,0.01801 -0.2881356,0.180085 0,0.09905 0.032415,0.180085 0.072034,0.180085 0.039619,0 0.072034,0.06715 0.072034,0.149213 0,0.08207 0.040935,0.190148 0.090967,0.24018 0.118096,0.118096 0.7014056,0.214312 0.7014056,0.115696 0,-0.04009 0.1134534,-0.07288 0.2521186,-0.07288 0.1386653,0 0.2521187,0.03242 0.2521187,0.07203 0,0.03962 0.1539724,0.07722 0.342161,0.08356 0.2909342,0.0098 0.3044149,0.01596 0.090042,0.04115 -0.1386653,0.01629 -0.2829132,0.05973 -0.3205509,0.09652 -0.091275,0.08923 -0.4517716,0.08558 -0.507839,-0.0051 -0.024486,-0.03962 -0.1722673,-0.07203 -0.3284037,-0.07203 -0.1561365,0 -0.2838844,0.03242 -0.2838844,0.07203 0,0.03962 -0.1134534,0.07203 -0.2521187,0.07203 -0.1386652,0 -0.2521186,-0.03242 -0.2521186,-0.07203 0,-0.03962 -0.1458686,-0.07203 -0.32415247,-0.07203 -0.1782839,0 -0.3241526,0.03242 -0.3241526,0.07203 0,0.03962 -0.1134534,0.07203 -0.2521186,0.07203 -0.1386653,0 -0.2521187,-0.03242 -0.2521187,-0.07203 0,-0.03962 -0.1115403,-0.07203 -0.2478674,-0.07203 -0.1363271,0 -0.2679011,0.03242 -0.2923868,0.07203 -0.044909,0.07266 -0.3822277,0.08389 -0.64830513,0.02158 z"
     id="path3753"
     inkscape:connector-curvature="0" />
  <path
     style="opacity:0.50406506;color:#000000;fill:none;stroke:none;stroke-width:0.28180036;marker:none;visibility:visible;display:inline;overflow:visible;enable-background:accumulate"
     d="m 0.09064473,0.98500836 c -0.1163798,-0.03813 -0.2344526,-0.10454 -0.2623842,-0.147577 -0.035852,-0.05524 -0.1205732,-0.04964 -0.2881355,0.01904 -0.3191287,0.130806 -0.63353753,0.18354104 -0.63353753,0.106261 0,-0.03462 -0.081905,-0.151268 -0.1820118,-0.259229 -0.2739023,-0.295391 -0.3231079,-0.485676 -0.1661727,-0.642611 0.1432386,-0.143239 0.1788966,-0.46464205 0.056091,-0.50557705 -0.1120281,-0.03734 -0.1064937,-0.491331 0.00932,-0.76428101 0.070916,-0.167138 0.07754,-0.252373 0.022392,-0.288135 -0.1385043,-0.08982 -0.1616126,-0.469564 -0.046136,-0.758168 0.084918,-0.212232 0.0911,-0.292168 0.025718,-0.332576 -0.1230649,-0.07606 -0.12857,-0.614807 -0.00777,-0.760362 0.055889,-0.06734 0.1052822,-0.192256 0.1097627,-0.277585 0.021974,-0.418481 0.043376,-0.468776 0.2328346,-0.547168 0.10895123,-0.04508 0.28965683,-0.132219 0.40156813,-0.193641 0.1677387,-0.09206 0.240596,-0.0963 0.4148347,-0.02413 0.2093065,0.0867 0.2099554,0.08877 0.066791,0.212931 -0.1658268,0.143821 -0.1854198,0.669702 -0.029764,0.798884 0.1017604,0.08445 2.55017187,0.147694 2.55017187,0.06587 0,-0.0276 0.1701801,-0.02041 0.3781779,0.01599 0.2079979,0.0364 0.5240466,0.06563 0.7023305,0.06495 0.4477807,-0.0017 0.5686726,0.04547 0.5557677,0.216787 -0.013938,0.185031 -0.250617,0.324703 -0.3618062,0.213514 -0.092986,-0.09299 -0.5541309,-0.106687 -0.5541309,-0.01646 0,0.03423 -0.151285,0.08298 -0.3361888,0.108323 -0.2531276,0.03469 -0.3669637,0.01823 -0.4607497,-0.06665 -0.068509,-0.062 -0.1360265,-0.0827 -0.1500401,-0.046 -0.014013,0.0367 -0.2318305,0.08645 -0.4840379,0.110562 -0.6495981,0.0621 -0.67669577,0.09945 -0.5441726,0.749955 0.042589,0.209053 0.4100254,0.224983 0.5810911,0.02519 0.096632,-0.112858 0.153404,-0.124264 0.3234475,-0.06499 0.1134341,0.03954 0.2062437,0.101141 0.2062437,0.136884 0,0.100125 0.4153846,0.07691 0.5140667,-0.02873 0.1048329,-0.112224 0.4843357,-0.07071 0.6232165,0.06817 0.1322137,0.132214 0.513437,0.125158 0.565481,-0.01047 0.059904,-0.156108 0.1701171,-0.132773 0.1701171,0.03602 0,0.07924 -0.032415,0.144068 -0.072034,0.144068 -0.039619,0 -0.072034,0.04862 -0.072034,0.108051 0,0.05943 -0.040519,0.111486 -0.090042,0.115684 -0.2367584,0.02007 -0.5269696,-0.02969 -0.569117,-0.09757 -0.031481,-0.05071 -0.1394652,-0.03845 -0.3288756,0.03734 -0.2191851,0.0877 -0.3543132,0.09741 -0.6066086,0.0436 -0.3373546,-0.07195 -0.7104412,0.0075 -0.7104412,0.15128 0,0.0406 -0.051658,0.07382 -0.1147947,0.07382 -0.063137,0 -0.1317482,0.06483 -0.1524691,0.144068 -0.020721,0.07924 -0.068363,0.14406801 -0.1058711,0.14406801 -0.11584,0 -0.030428,0.449073 0.1010701,0.531399 0.094909,0.05942 0.1457693,0.05078 0.2161017,-0.0367 0.1477791,-0.183805 0.3134921,-0.20492 0.4408517,-0.05617 0.1220836,0.142583 0.623586,0.199331 0.623586,0.07056 0,-0.129428 0.3091736,-0.17205 0.395147,-0.05448 0.045084,0.06166 0.1681534,0.133733 0.2734864,0.16017 0.164091,0.04118 0.1770841,0.0625 0.090738,0.14884305 -0.1159604,0.115961 -0.5132011,0.135671 -0.5792865,0.02874 -0.081435,-0.131764 -0.5290037,-0.08358 -0.6088109,0.06554 -0.082247,0.15368 -0.3491181,0.128175 -0.4134669,-0.03951 -0.051903,-0.135258 -0.4872129,-0.124079 -0.6030413,0.01548 -0.057198,0.06892 -0.067166,0.132615 -0.025362,0.162077 0.1194515,0.08418 0.2521613,0.455962 0.2100839,0.588536 -0.025839,0.08141 0.0058,0.145055 0.087815,0.176652 0.1174681,0.04525 0.1182411,0.05499 0.00923,0.116197 -0.1348263,0.0757 -0.56534547,0.0106 -0.56534547,-0.0855 0,-0.114642 -0.3577957,-0.0654 -0.4907309,0.06753 -0.1051247,0.10512404 -0.1717865,0.11705404 -0.342161,0.06123 z"
     id="path3755"
     inkscape:connector-curvature="0" />
</svg>
