<?xml version="1.0" encoding="UTF-8"?>
<!DOCTYPE svg PUBLIC "-//W3C//DTD SVG 1.1//EN" "http://www.w3.org/Graphics/SVG/1.1/DTD/svg11.dtd">
<svg xmlns="http://www.w3.org/2000/svg" xmlns:xlink="http://www.w3.org/1999/xlink" width="17px" height="17px" version="1.1"><defs/><g transform="translate(0.5,0.5)"><path d="M 0.15 4.33 L 1.4 5.28 L 1.26 6.3 L -0.17 6.85 L 0.29 8.78 L 1.9 8.58 L 2.51 9.42 L 1.92 10.79 L 3.6 11.81 L 4.58 10.59 L 5.67 10.72 L 6.24 12.12 L 8.19 11.67 L 8.01 10.08 L 8.85 9.42 L 10.19 10.1 L 11.32 8.42 L 10 7.43 L 10.14 6.43 L 11.62 5.88 L 11.18 3.98 L 9.48 4.15 L 8.89 3.4 L 9.5 1.94 L 7.8 0.97 L 6.74 2.21 L 5.69 2.05 L 5.03 0.64 L 3.15 1.12 L 3.33 2.67 L 2.63 3.27 L 1.17 2.67 Z M 3.65 6.49 C 3.65 5.37 4.58 4.46 5.73 4.46 C 6.88 4.46 7.81 5.37 7.81 6.49 C 7.81 7.61 6.88 8.51 5.73 8.51 C 4.58 8.51 3.65 7.61 3.65 6.49 Z" fill="#ffffff" stroke="#000000" stroke-miterlimit="10" pointer-events="none"/><path d="M 2.37 6.85 L 3.62 7.8 L 3.48 8.82 L 2.05 9.37 L 2.51 11.3 L 4.12 11.1 L 4.73 11.94 L 4.14 13.31 L 5.82 14.33 L 6.8 13.11 L 7.89 13.24 L 8.45 14.64 L 10.41 14.19 L 10.22 12.6 L 11.06 11.94 L 12.4 12.62 L 13.54 10.94 L 12.22 9.95 L 12.36 8.95 L 13.83 8.4 L 13.4 6.5 L 11.7 6.68 L 11.11 5.92 L 11.72 4.46 L 10.02 3.49 L 8.95 4.73 L 7.91 4.57 L 7.25 3.16 L 5.37 3.64 L 5.55 5.19 L 4.84 5.79 L 3.39 5.19 Z M 5.87 9.01 C 5.87 7.89 6.8 6.98 7.95 6.98 C 9.1 6.98 10.03 7.89 10.03 9.01 C 10.03 10.13 9.1 11.04 7.95 11.04 C 6.8 11.04 5.87 10.13 5.87 9.01 Z" fill="#ffffff" stroke="#000000" stroke-miterlimit="10" pointer-events="none"/></g></svg>