<?xml version="1.0" encoding="UTF-8"?>
<!DOCTYPE svg PUBLIC "-//W3C//DTD SVG 1.1//EN" "http://www.w3.org/Graphics/SVG/1.1/DTD/svg11.dtd">
<svg xmlns="http://www.w3.org/2000/svg" xmlns:xlink="http://www.w3.org/1999/xlink" width="17px" height="17px" version="1.1"><defs/><g transform="translate(0.5,0.5)"><path d="M -0.17 14.64 L -0.17 10.37 C 0.65 8.93 1.91 7.8 3.41 7.17 C 3.84 7.03 4.3 6.98 4.75 7.01 C 4.74 8.33 5.7 9.45 6.98 9.6 C 7.68 9.65 8.36 9.39 8.87 8.9 C 9.38 8.41 9.66 7.73 9.66 7.01 C 10.2 6.94 10.75 6.99 11.27 7.17 C 12.51 7.84 13.44 8.99 13.83 10.37 L 13.83 14.64 Z M 9.66 7.01 C 9.66 7.73 9.38 8.41 8.87 8.9 C 8.36 9.39 7.68 9.65 6.98 9.6 C 5.7 9.45 4.74 8.33 4.75 7.01 C 5 6.99 5.25 6.94 5.49 6.86 L 5.64 6.25 C 5.17 6.14 4.78 5.8 4.6 5.34 C 4.21 4.58 4.6 3.74 5.54 3.26 C 6.49 2.78 7.78 2.78 8.72 3.26 C 9.67 3.74 10.05 4.58 9.66 5.34 C 9.42 5.8 8.98 6.14 8.47 6.25 L 8.62 6.86 Z" fill="#ffffff" stroke="#000000" stroke-miterlimit="10" pointer-events="none"/><path d="M 2.22 12.2 L 2.22 14.48 M 11 12.2 L 11 14.48" fill="none" stroke="#000000" stroke-miterlimit="10" pointer-events="none"/><path d="M 4.6 5.34 C 3.93 4.65 3.75 3.62 4.15 2.74 C 4.66 1.59 5.75 0.82 6.98 0.76 C 8.38 0.64 9.69 1.43 10.26 2.74 C 10.62 3.65 10.38 4.69 9.66 5.34 C 9.71 4.86 9.6 4.38 9.37 3.96 C 8.74 3.56 7.96 3.5 7.28 3.81 C 6.56 3.45 5.71 3.51 5.05 3.96 C 4.76 4.36 4.6 4.84 4.6 5.34 Z" fill="#000000" stroke="#000000" stroke-miterlimit="10" pointer-events="none"/></g></svg>