<svg width="116" height="126" xmlns="http://www.w3.org/2000/svg">

 <g>
  <title>background</title>
  <rect fill="none" id="canvas_background" height="402" width="582" y="-1" x="-1"/>
 </g>
 <g>
  <title>Layer 1</title>
  <path stroke="#fefefe" id="svg_1" d="m0,0l116,0l0,126l-30.419998,0c8.93,-2.779999 20.650002,-2.669998 26.479996,-10.970001c3.260002,-4.510002 -3.399994,-7.989998 -7.149994,-9.080002c0.109993,-3.719994 -0.190002,-7.399994 -0.910004,-11.029999c-0.239998,-0.900002 -0.480003,-1.799995 -0.739998,-2.699997c0.369995,-3.099998 0.829994,-6.200005 0.82,-9.330002c0.189995,-2 -0.270004,-4.010002 -2.020004,-5.18c0.730003,-0.839996 1.459999,-1.669998 2.100006,-2.57c1.049995,-7.18 1.909996,-15.18 0,-22.299999c-0.330002,-0.849998 -0.650002,-1.709999 -0.970001,-2.57c0.409996,-3.110001 0.909996,-6.23 0.889999,-9.380001c0.159996,-1.98 -0.190002,-4.029999 -2.020004,-5.130001c0.790001,-0.779999 1.870003,-1.399998 2.25,-2.509998c0.420006,-7.33 2.120003,-15.389999 -0.040001,-22.5c-9,-6.87 -21.229996,-6.62 -32.079994,-8.09c-9.100002,-0.95 -18.310001,-1.03 -27.420002,-0.19c-10.670002,1.36 -23.42,1.03 -31.950001,8.28c-0.849999,7.549999 -2.17,15.959999 0.030001,23.419998c0.309999,0.790001 0.62,1.59 0.91,2.380001c-0.2,0.34 -0.610001,1.02 -0.820001,1.360001c-0.71,3.259998 -2.429999,8.209999 -0.02,11.220001c0.22,0.299999 0.65,0.91 0.87,1.209999c-0.29,0.849998 -0.56,1.709999 -0.83,2.57c-0.94,7.52 -2.43,15.880001 -0.08,23.259998c0.309999,0.75 0.63,1.5 0.95,2.260002c-0.23,0.360001 -0.67,1.080002 -0.9,1.440002c-0.72,3.259995 -2.42,8.25 -0.01,11.259995c0.21,0.300003 0.64,0.889999 0.86,1.190002c-0.17,0.440002 -0.509999,1.32 -0.679999,1.769997c-1.29,3.230003 -1.070001,6.730003 -0.88,10.110001l-0.13,0.790001c-3.97,1.690002 -8.65,4.18 -9.18,8.970001c5.98,9.040001 18.120001,9.129997 27.620001,12.040001l-30.530001,0l0,-126z" fill="none"/>
  <path id="svg_2" d="m44.77,2.47c9.110001,-0.84 18.32,-0.76 27.420002,0.19c-11.570004,1.64 8.360001,0.81 11.089996,3.22c-16.369995,0.13 -32.759998,0.36 -49.119999,0c0.009998,-2.56 19.849998,-0.7 10.610001,-3.41z" fill="#96a0a2"/>
  <path id="svg_3" d="m12.82,10.75c8.530001,-7.25 21.279999,-6.92 31.950001,-8.28c9.239998,2.71 -10.600002,0.85 -10.610001,3.41c16.360001,0.36 32.750004,0.13 49.119999,0c-2.729996,-2.41 -22.66,-1.58 -11.089996,-3.22c10.849998,1.47 23.079994,1.22 32.079994,8.09c-0.049995,0.51 -0.159996,1.54 -0.219994,2.05c-3.010002,0.13 -6,0.32 -8.710007,1.69c-1.279999,-2.349999 -1.589996,-6.469999 -6.329994,-3.53c-21.93,0.15 -43.870003,-0.14 -65.800003,0.13c-0.859999,6.34 -6.439999,0.45 -10.339999,0.63l-0.05,-0.97z" fill="#697477"/>
  <path id="svg_4" d="m12.85,34.169998c-2.200001,-7.459999 -0.88,-15.869999 -0.030001,-23.419998l0.05,0.97c0.2,7.489999 0.08,14.97 -0.02,22.449998z" fill="#b4b6b7"/>
  <path id="svg_5" d="m23.209999,11.09c21.93,-0.27 43.870003,0.02 65.800003,-0.13c4.739998,-2.94 5.049995,1.18 6.329994,3.53c2.710007,-1.37 5.700005,-1.559999 8.710007,-1.69c-0.040001,0.5 -0.120003,1.48 -0.160004,1.98c-7.050003,4.52 -2.93,14.150001 -3.870003,21.170001c-1.329994,0.349998 -2.649994,0.719997 -3.959999,1.110001c0.900002,-6.510002 -2.309998,-14.230001 1.770004,-20.010002c-4.029999,1.42 -7.440002,1.34 -4.020004,-3.129999c-23.239998,-2.14 -47.129997,-0.37 -70.619997,-0.89c3.189999,7.599999 -4.32,3.86 -8.490001,2.12c1.920001,4.6 8.910001,2.790001 12.170001,6.110001c0.679998,5.85 -0.940001,12.059999 1.009998,17.730001c-4.769999,0.41 -9.719999,-4.59 -14.119999,-2.440002c-0.29,-0.790001 -0.6,-1.59 -0.91,-2.380001c0.099999,-7.479998 0.219999,-14.959999 0.02,-22.449998c3.900001,-0.18 9.48,5.71 10.339999,-0.63z" fill="#7b8789"/>
  <path id="svg_6" d="m104.269997,10.75c2.160004,7.110001 0.460007,15.17 0.040001,22.5c-0.169998,-6.16 -0.360001,-12.309999 -0.419998,-18.47c0.040001,-0.5 0.120003,-1.48 0.160004,-1.98c0.059998,-0.51 0.169998,-1.54 0.219994,-2.05z" fill="#cfd2d3"/>
  <path id="svg_7" d="m23.190001,13.03c23.49,0.52 47.379999,-1.25 70.619997,0.89c-3.419998,4.469999 -0.009995,4.549999 4.020004,3.129999c-4.080002,5.780001 -0.870003,13.5 -1.770004,20.010002c-1.949997,0.759998 -3.869995,1.599998 -5.879997,2.16c-12.82,2.789997 2.889999,-21.120001 -10.949997,-17.610001c-10.130005,-0.880001 -20.320004,-0.870001 -30.470005,-0.35c-6.57,-0.17 -13.109997,-0.82 -19.649998,-1.41c0.189999,0.32 0.58,0.969999 0.769999,1.289999c0.130001,6.08 0.130001,12.16 -0.109999,18.23c-0.470001,-0.09 -1.42,-0.279999 -1.890001,-0.379997c-1.949999,-5.670002 -0.33,-11.880001 -1.009998,-17.730001c-3.26,-3.32 -10.25,-1.51 -12.170001,-6.110001c4.170001,1.74 11.679999,5.48 8.490001,-2.12z" fill="#939da0"/>
  <path id="svg_8" d="m100.019997,35.950001c0.940002,-7.02 -3.18,-16.650002 3.870003,-21.170001c0.059998,6.160001 0.25,12.31 0.419998,18.47c-0.379997,1.110001 -1.459999,1.73 -2.25,2.509998c-0.509995,0.050003 -1.529999,0.140003 -2.040001,0.190002z" fill="#697274"/>
  <path id="svg_9" d="m29.110001,19.85c6.540001,0.59 13.079998,1.24 19.649998,1.41c6.060001,0.780001 12.170002,0.65 18.259998,0.73c2.75,0.42 -0.989998,1.4 -2.019997,1.040001c-8.5,-0.280001 -2.130001,12.960001 -4.009998,17.949999c-5.93,0.040001 -11.860001,0.010002 -17.790001,-0.099998c-15.58,3.719997 0.799999,-21.700001 -13.320002,-19.740002c-0.189999,-0.32 -0.58,-0.969999 -0.769999,-1.289999z" fill="#e9eaea"/>
  <path id="svg_10" d="m29.879999,21.139999c14.120001,-1.959999 -2.259998,23.459999 13.320002,19.740002c-0.850002,0.099998 -2.57,0.299999 -3.43,0.399998c-3.389999,-0.289997 -6.689999,-1.139999 -10,-1.91c0.24,-6.07 0.24,-12.15 0.109999,-18.23z" fill="#c2c8ca"/>
  <path id="svg_11" d="m48.759998,21.26c10.150002,-0.52 20.34,-0.530001 30.470005,0.35c-0.850006,0.07 -2.540001,0.23 -3.390007,0.309999c-10.25,-0.450001 -4.689995,12.67 -5.679993,19.35c-1.720001,-0.100002 -3.440002,-0.200001 -5.160004,-0.279999c0,-5.990002 -0.010002,-11.970001 0,-17.960001c1.029999,0.359999 4.769997,-0.620001 2.019997,-1.040001c-6.089996,-0.08 -12.199997,0.050001 -18.259998,-0.73z" fill="#b7c0c2"/>
  <path id="svg_12" d="m70.160004,41.27c0.989998,-6.68 -4.570007,-19.800001 5.679993,-19.35c-1.039993,6.280001 -0.399994,12.749998 -1.789993,18.969999c-1.300003,0.150002 -2.590004,0.27 -3.889999,0.380001z" fill="#92a2a5"/>
  <path id="svg_13" d="m75.839996,21.92c0.850006,-0.08 2.540001,-0.24 3.390007,-0.309999c13.839996,-3.51 -1.870003,20.399998 10.949997,17.610001c-5.370003,0.649998 -10.790001,0.84 -16.129997,1.669998c1.389999,-6.220001 0.75,-12.689999 1.789993,-18.969999z" fill="#6d7e82"/>
  <path id="svg_14" d="m60.990002,40.98c1.879997,-4.989998 -4.490002,-18.23 4.009998,-17.949999c-0.010002,5.99 0,11.969999 0,17.960001c-1.34,0 -2.68,0 -4.009998,-0.010002z" fill="#d1d6d6"/>
  <path id="svg_15" d="m13.76,36.549999c4.4,-2.149998 9.35,2.850002 14.119999,2.440002c0.470001,0.099998 1.42,0.289997 1.890001,0.379997c3.310001,0.77 6.610001,1.620003 10,1.91c10.079998,1.170002 20.310001,1.09 30.390003,-0.009998c1.299995,-0.110001 2.589996,-0.23 3.889999,-0.380001c5.339996,-0.829998 10.759995,-1.02 16.129997,-1.669998c2.010002,-0.560001 3.93,-1.400002 5.879997,-2.16c1.310005,-0.390003 2.630005,-0.760002 3.959999,-1.110001c0.510002,-0.049999 1.530006,-0.139999 2.040001,-0.190002c1.830002,1.100002 2.18,3.150002 2.020004,5.130001c-1.620003,0.880001 -3.260002,1.73 -4.830002,2.690002c-3.690002,1.309998 -7.489998,2.279999 -11.230003,3.429996c-14.399994,1.060001 -28.839996,0.84 -43.259998,1.260002c-4.889999,-0.100002 -9.739998,-0.670002 -14.549999,-1.5c-4.129999,-0.73 -8.279999,-1.549999 -12.189999,-3.119999c-1.68,-0.920002 -3.38,-1.830002 -5.05,-2.760002c-0.01,-0.75 -0.02,-2.23 -0.030001,-2.98c0.21,-0.34 0.620001,-1.02 0.820001,-1.360001z" fill="#185f6f"/>
  <path id="svg_16" d="m12.92,49.130001c-2.41,-3.010002 -0.690001,-7.960003 0.02,-11.220001c0.01,0.75 0.02,2.23 0.030001,2.98c-0.04,2.740002 -0.06,5.490002 -0.05,8.240002z" fill="#99c4cc"/>
  <path id="svg_17" d="m12.97,40.889999c1.67,0.93 3.37,1.84 5.05,2.760002c-1.9,3.279999 6.809999,2.779999 9.699999,4.18c-1.9,5.439999 1.960001,7.48 6.26,7.309998l0.029999,0.990002c-6.979998,-0.670002 -13.599998,-3.549999 -20.219998,-5.790001c-0.22,-0.299999 -0.65,-0.91 -0.87,-1.209999c-0.01,-2.75 0.01,-5.5 0.05,-8.240002z" fill="#1291ab"/>
  <path id="svg_18" d="m39.77,41.279999c0.860001,-0.099998 2.579998,-0.299999 3.43,-0.399998c5.93,0.110001 11.860001,0.139999 17.790001,0.099998c1.329998,0.010002 2.669998,0.010002 4.009998,0.010002c1.720001,0.079998 3.440002,0.179996 5.160004,0.279999c-10.080002,1.099998 -20.310005,1.18 -30.390003,0.009998z" fill="#909498"/>
  <path id="svg_19" d="m99.25,43.580002c1.57,-0.960003 3.209999,-1.810001 4.830002,-2.690002c0.019997,3.150002 -0.480003,6.27 -0.889999,9.380001c-2.540001,1.329998 -5.240005,2.32 -8.050003,2.899998c1.650002,-3.109997 2.32,-6.619999 4.110001,-9.589996z" fill="#0f879f"/>
  <path id="svg_20" d="m27.719999,47.830002c-2.889999,-1.400002 -11.599998,-0.900002 -9.699999,-4.18c3.91,1.57 8.059999,2.389999 12.189999,3.119999c-0.619999,0.259998 -1.869999,0.790001 -2.49,1.060001z" fill="#5eb7c9"/>
  <path id="svg_21" d="m88.019997,47.009998c3.740005,-1.149998 7.540001,-2.119999 11.230003,-3.429996c-1.790001,2.969997 -2.459999,6.48 -4.110001,9.589996l-0.849998,0.220001c-5.120003,0.799999 -8.540001,0.360001 -10.32,-4.77c1.349998,-0.52 2.709999,-1.049999 4.049995,-1.610001z" fill="#18afce"/>
  <path id="svg_22" d="m27.719999,47.830002c0.620001,-0.27 1.870001,-0.800003 2.49,-1.060001c4.810001,0.829998 9.66,1.399998 14.549999,1.5c9.41,1.68 19.16,-0.510002 28.48,1.5c-1.809998,0.040001 -5.439995,0.139999 -7.25,0.189999c-5.869999,-2.399998 -8.279999,1.220001 -8.159996,6.02c-7.240002,-0.110001 -14.640003,0.760002 -21.740002,-1.02c2.75,-7.09 -4.17,-6.369999 -8.370001,-7.129997z" fill="#a4eefc"/>
  <path id="svg_23" d="m44.759998,48.27c14.420002,-0.420002 28.860004,-0.200001 43.259998,-1.260002c-1.339996,0.560001 -2.699997,1.09 -4.049995,1.610001c-3.550003,0.610001 -7.110001,1.470001 -10.730003,1.150002c-9.32,-2.010002 -19.07,0.18 -28.48,-1.5z" fill="#53a7b9"/>
  <path id="svg_24" d="m27.719999,47.830002c4.200001,0.759998 11.120001,0.039997 8.370001,7.129997c-0.529999,0.049999 -1.580002,0.139999 -2.110001,0.18c-4.299999,0.170002 -8.16,-1.869999 -6.26,-7.309998z" fill="#4bdcf9"/>
  <path id="svg_25" d="m73.239998,49.77c3.620003,0.32 7.18,-0.540001 10.730003,-1.150002c1.779999,5.130001 5.199997,5.57 10.32,4.77c-1.940002,0.810001 -3.910004,1.59 -5.989998,1.990002c-5.170006,-1.02 -10.210007,0.329998 -15.330002,0.619999c0.059998,-2.080002 0.139999,-4.16 0.269997,-6.23z" fill="#0692af"/>
  <path id="svg_26" d="m13.79,50.34c6.62,2.240002 13.240001,5.119999 20.219998,5.790001c11.310001,0.549999 22.700001,2.829998 33.98,0.84c6.779999,-0.010002 13.670006,0 20.310005,-1.59c2.079994,-0.400002 4.049995,-1.18 5.989998,-1.990002l0.849998,-0.220001c2.809998,-0.579998 5.510002,-1.57 8.050003,-2.899998c0.32,0.860001 0.639999,1.720001 0.970001,2.57c-0.030006,0.759998 -0.110001,2.27 -0.140007,3.029999c-1.079994,0.639999 -2.159996,1.27 -3.239998,1.91c-1.659996,0.68 -3.349998,1.290001 -5.029999,1.93c-4.32,0.860001 -8.580002,2.049999 -12.980003,2.459999c-1.669998,0.050003 -3.329994,0.170002 -4.989998,0.360001c-10.32,0.850002 -20.689999,0.150002 -31.02,0.720001c-2.859997,-0.169998 -5.73,-0.299999 -8.579998,-0.529999c-2.34,-0.350002 -4.68,-0.690002 -7.02,-1.02c-4.52,-0.34 -8.85,-1.610001 -13.08,-3.130001c-1.719999,-0.860001 -3.43,-1.739998 -5.11,-2.66c0,-0.75 -0.01,-2.25 -0.01,-3c0.27,-0.860001 0.54,-1.720001 0.83,-2.57z" fill="#4b636a"/>
  <path id="svg_27" d="m57.830002,55.98c-0.120003,-4.799999 2.289997,-8.419998 8.159996,-6.02c0,2 0.010002,4 0.020004,6.010002c-2.730003,0.009998 -5.460003,0.009998 -8.18,0.009998z" fill="#6be0f7"/>
  <path id="svg_28" d="m65.989998,49.959999c1.810005,-0.049999 5.440002,-0.149998 7.25,-0.189999c-0.129997,2.07 -0.209999,4.149998 -0.269997,6.23c-1.660004,0.060001 -3.32,0.029999 -4.980003,0.029999c-0.489998,-0.02 -1.479996,-0.049999 -1.979996,-0.059998c-0.010002,-2.010002 -0.020004,-4.010002 -0.020004,-6.010002z" fill="#27bedd"/>
  <path id="svg_29" d="m12.88,76.169998c-2.35,-7.379997 -0.86,-15.739998 0.08,-23.259998c0,0.75 0.01,2.25 0.01,3c0.05,6.75 0.02,13.509998 -0.09,20.259998z" fill="#b2b5b5"/>
  <path id="svg_30" d="m104.160004,52.84c1.909996,7.119999 1.049995,15.119999 0,22.299999c-0.060005,-6.43 -0.230003,-12.849998 -0.140007,-19.27c0.030006,-0.759998 0.110001,-2.27 0.140007,-3.029999z" fill="#ced1d1"/>
  <path id="svg_31" d="m33.98,55.139999c0.529999,-0.040001 1.580002,-0.130001 2.110001,-0.18c7.099998,1.780003 14.5,0.91 21.740002,1.02c2.719997,0 5.449997,0 8.18,-0.009998c0.5,0.009998 1.489998,0.039997 1.979996,0.059998l0,0.940002c-11.279999,1.989998 -22.669998,-0.290001 -33.98,-0.84l-0.029999,-0.990002z" fill="#5fa2b3"/>
  <path id="svg_32" d="m72.970001,56c5.119995,-0.290001 10.159996,-1.639999 15.330002,-0.619999c-6.639999,1.59 -13.530006,1.579998 -20.310005,1.59l0,-0.940002c1.660004,0 3.32,0.030003 4.980003,-0.029999z" fill="#0e6b80"/>
  <path id="svg_33" d="m12.97,55.91c1.679999,0.920002 3.39,1.799999 5.11,2.66c-2.99,3.540001 6.809999,1.59 8.190001,4.16c1.9,5.600002 -0.41,12.469997 1.529999,18.390003c-4.599998,-1.130005 -9.179998,-2.770004 -13.969999,-2.690002c-0.32,-0.760002 -0.64,-1.510002 -0.95,-2.260002c0.11,-6.75 0.14,-13.509998 0.09,-20.259998z" fill="#778486"/>
  <path id="svg_34" d="m100.779999,57.779999c1.080002,-0.639999 2.160004,-1.27 3.239998,-1.91c-0.089996,6.420002 0.080002,12.84 0.140007,19.27c-0.640007,0.900002 -1.370003,1.730003 -2.100006,2.57c-1.610001,0.550003 -3.220001,1.099998 -4.839996,1.629997c4.299995,-6.279999 -0.900002,-15.199997 3.559998,-21.559998z" fill="#6a7476"/>
  <path id="svg_35" d="m95.75,59.709999c1.68,-0.639999 3.370003,-1.25 5.029999,-1.93c-4.459999,6.360001 0.739998,15.279999 -3.559998,21.559998c-0.75,-0.019997 -2.230003,-0.049995 -2.970001,-0.059998c0.519997,-6.400002 -2.120003,-13.760002 1.5,-19.57z" fill="#838f91"/>
  <path id="svg_36" d="m26.27,62.73c-1.380001,-2.57 -11.18,-0.619999 -8.190001,-4.16c4.23,1.52 8.559999,2.790001 13.08,3.130001c-5.18,1.73 0.82,12.02 -1.17,16.310001c-1.01,3.889999 3.559999,3.220001 6.059999,3.909996c8.59,1.200005 17.290001,1.150002 25.950001,1.07c0.5,0.010002 1.490002,0.029999 1.990002,0.050003l0.029995,1c-12.079998,-0.080002 -24.569996,1.049995 -36.219997,-2.919998c-1.939999,-5.920006 0.370001,-12.790001 -1.529999,-18.390003z" fill="#969fa2"/>
  <path id="svg_37" d="m82.769997,62.169998c4.400002,-0.41 8.660004,-1.599998 12.980003,-2.459999c-3.620003,5.809998 -0.980003,13.169998 -1.5,19.57c-2.370003,0.730003 -4.739998,1.57 -7.230003,1.75c-2.059998,-5.559998 4.740005,-18.34 -4.25,-18.860001z" fill="#9aa8ab"/>
  <path id="svg_38" d="m29.99,78.010002c1.99,-4.290001 -4.01,-14.580002 1.17,-16.310001c2.34,0.329998 4.68,0.669998 7.02,1.02c-7.300001,0.73 0.02,13.75 -2.130001,19.199997c-2.5,-0.689995 -7.07,-0.019997 -6.059999,-3.909996z" fill="#c5cccd"/>
  <path id="svg_39" d="m77.779999,62.529999c1.660004,-0.189999 3.32,-0.309998 4.989998,-0.360001c8.990005,0.52 2.190002,13.300003 4.25,18.860001c-9.859993,1.910004 0.700005,-14.82 -5.739998,-17.389999c-1.159996,-0.41 -2.32,-0.779999 -3.5,-1.110001z" fill="#7d9093"/>
  <path id="svg_40" d="m36.049999,81.919998c2.150002,-5.449997 -5.17,-18.469997 2.130001,-19.199997c2.849998,0.23 5.720001,0.360001 8.579998,0.529999c7.790001,1.080002 15.650002,0.529999 23.470005,0.839996c-0.530006,0.280006 -1.590004,0.840004 -2.120003,1.120003c-11.080002,-3.25 -4.540001,11.529999 -6.110001,17.779999c-8.66,0.080002 -17.360001,0.130005 -25.950001,-1.07z" fill="#e9e9ea"/>
  <path id="svg_41" d="m46.759998,63.25c10.330002,-0.57 20.700001,0.130001 31.02,-0.720001c1.18,0.330002 2.340004,0.700001 3.5,1.110001c-1.489998,0.060001 -2.970001,0.16 -4.449997,0.32c-8.410004,1.349998 -1.230003,13.309998 -4.700005,19.099998c-1.689995,0.07 -3.379997,0.010002 -5.07,-0.019997c0.970001,-5.889999 0.970001,-11.879997 1.050003,-17.830002c0.529999,-0.279999 1.589996,-0.839996 2.120003,-1.120003c-7.820004,-0.309998 -15.680004,0.240005 -23.470005,-0.839996z" fill="#a0afb2"/>
  <path id="svg_42" d="m72.129997,83.059998c3.470001,-5.790001 -3.709999,-17.75 4.700005,-19.099998c-3.090004,5.590004 3.839996,17.980003 -4.700005,19.099998z" fill="#819195"/>
  <path id="svg_43" d="m76.830002,63.959999c1.479996,-0.16 2.959999,-0.259998 4.449997,-0.32c6.440002,2.57 -4.119995,19.300003 5.739998,17.389999c2.490005,-0.18 4.860001,-1.019997 7.230003,-1.75c0.739998,0.010002 2.220001,0.040001 2.970001,0.059998c-10.650002,3.460007 -22.130005,3.580002 -33.200005,4.700005l-0.029995,-1c0.77,0 2.299999,0 3.069996,0c1.690002,0.029999 3.380005,0.089996 5.07,0.019997c8.540001,-1.119995 1.610001,-13.509995 4.700005,-19.099998z" fill="#68777c"/>
  <path id="svg_44" d="m62,82.989998c1.57,-6.25 -4.970001,-21.029999 6.110001,-17.779999c-0.080002,5.950005 -0.080002,11.940002 -1.050003,17.830002c-0.769997,0 -2.299995,0 -3.069996,0c-0.5,-0.020004 -1.490002,-0.040001 -1.990002,-0.050003z" fill="#c4cccd"/>
  <path id="svg_45" d="m13.83,78.43c4.790001,-0.080002 9.370001,1.559998 13.969999,2.690002c11.650002,3.969994 24.139999,2.839996 36.219997,2.919998c11.07,-1.120003 22.550003,-1.239998 33.200005,-4.700005c1.619995,-0.529999 3.229996,-1.079994 4.839996,-1.629997c1.75,1.169998 2.209999,3.18 2.020004,5.18c-1.620003,0.879997 -3.260002,1.730003 -4.840004,2.690002c-3.68,1.32 -7.479996,2.279999 -11.220001,3.43c-14.399994,1.07 -28.839996,0.829994 -43.259998,1.259995c-4.889999,-0.099998 -9.739998,-0.669998 -14.549999,-1.5c-4.129999,-0.729996 -8.279999,-1.549995 -12.189999,-3.119995c-1.68,-0.919998 -3.38,-1.830002 -5.05,-2.760002c-0.01,-0.760002 -0.030001,-2.260002 -0.04,-3.019997c0.23,-0.360001 0.67,-1.080002 0.9,-1.440002z" fill="#165f70"/>
  <path id="svg_46" d="m12.92,91.129997c-2.41,-3.009995 -0.71,-8 0.01,-11.259995c0.009999,0.759995 0.03,2.259995 0.04,3.019997c-0.04,2.739998 -0.05,5.489998 -0.05,8.239998z" fill="#99c4cc"/>
  <path id="svg_47" d="m12.97,82.889999c1.67,0.93 3.37,1.840004 5.05,2.760002c-1.91,3.279999 6.809999,2.779999 9.699999,4.18c-1.889999,5.43 1.950001,7.470001 6.250002,7.309998l0.049999,0.989998c-6.99,-0.68 -13.630001,-3.529999 -20.240001,-5.809998c-0.219999,-0.300003 -0.65,-0.889999 -0.86,-1.190002c0,-2.75 0.01,-5.5 0.05,-8.239998z" fill="#1291ab"/>
  <path id="svg_48" d="m99.239998,85.580002c1.580002,-0.959999 3.220001,-1.810005 4.840004,-2.690002c0.009995,3.129997 -0.450005,6.230003 -0.82,9.330002c-11.43,6.040001 -24.779999,5.959999 -37.340004,6.779999l0.130005,-0.970001l0.969994,-0.029999c5.510002,1.300003 8.910004,0.269997 7.18,-6c3.270004,-0.220001 6.490005,-0.839996 9.730003,-1.339996c0.050003,8.75 15.279999,5.689995 13.620003,-2.170006c0.610001,-0.949997 1.729996,-1.669998 1.689995,-2.909996z" fill="#0a88a3"/>
  <path id="svg_49" d="m27.719999,89.830002c-2.889999,-1.400002 -11.609999,-0.900002 -9.699999,-4.18c3.91,1.57 8.059999,2.389999 12.189999,3.119995c-0.619999,0.260002 -1.869999,0.800003 -2.49,1.060005z" fill="#5eb7c8"/>
  <path id="svg_50" d="m88.019997,89.010002c3.740005,-1.150002 7.540001,-2.110001 11.220001,-3.43c0.040001,1.239998 -1.079994,1.959999 -1.689995,2.909996c1.659996,7.860001 -13.57,10.920006 -13.620003,2.170006c1.370003,-0.550003 2.730003,-1.090004 4.089996,-1.650002z" fill="#17afce"/>
  <path id="svg_51" d="m27.719999,89.830002c0.620001,-0.260002 1.870001,-0.800003 2.49,-1.060005c4.810001,0.830002 9.66,1.400002 14.549999,1.5c9.420002,1.740005 19.220001,-0.589996 28.530003,1.5c-2.099998,0.080002 -4.200005,0.160004 -6.300003,0.230003c-5.549999,-1.32 -8.939999,-0.269997 -7.049999,5.989998c-7.969997,0.160004 -15.959999,0.130005 -23.869999,-0.970001c2.810001,-7.129997 -4.119999,-6.43 -8.35,-7.189995z" fill="#a3eefc"/>
  <path id="svg_52" d="m44.759998,90.269997c14.420002,-0.43 28.860004,-0.189995 43.259998,-1.259995c-1.359993,0.559998 -2.719994,1.099998 -4.089996,1.650002c-3.239998,0.5 -6.459999,1.119995 -9.730003,1.339996l-0.909996,-0.230003c-9.310001,-2.089996 -19.110001,0.240005 -28.530003,-1.5z" fill="#53a7b9"/>
  <path id="svg_53" d="m27.719999,89.830002c4.230001,0.759995 11.160002,0.059998 8.35,7.189995c-0.52,0.030006 -1.579998,0.090004 -2.099998,0.120003c-4.300001,0.160004 -8.140001,-1.879997 -6.250002,-7.309998z" fill="#4bdcf9"/>
  <path id="svg_54" d="m13.78,92.32c6.61,2.279999 13.250001,5.129997 20.240001,5.809998c10.610001,0.360001 21.329998,2.850006 31.899998,0.870003c12.560005,-0.82 25.910004,-0.739998 37.340004,-6.779999c0.259995,0.900002 0.5,1.799995 0.739998,2.699997c0,0.490005 0,1.470001 0,1.959999c-1.980003,1.450005 -4.089996,2.709999 -6.199997,3.950005c-7.900002,1.860001 -15.950005,2.93 -23.990005,3.889999c-7.349998,0.239998 -14.699997,0.379997 -22.039997,0.549995c-6.549999,-0.389999 -13.100002,-0.799995 -19.59,-1.719994c-1.6,-0.310005 -3.210001,-0.580002 -4.82,-0.850006c-4.200001,-1.289993 -8.42,-2.529999 -12.56,-3.989998c-0.55,-0.639999 -1.1,-1.279999 -1.66,-1.909996c-0.01,-0.68 -0.030001,-2.030006 -0.04,-2.710007c0.17,-0.449997 0.509999,-1.329994 0.679999,-1.769997z" fill="#4a646a"/>
  <path id="svg_55" d="m59.939999,97.989998c-1.889999,-6.259995 1.5,-7.309998 7.049999,-5.989998c0.010002,2 0.010002,4 0.029999,6l-0.969994,0.029999c-2.040001,-0.019997 -4.080002,-0.019997 -6.110004,-0.040001z" fill="#5fdaf3"/>
  <path id="svg_56" d="m66.989998,92c2.099998,-0.07 4.200005,-0.150002 6.300003,-0.230003l0.909996,0.230003c1.730003,6.269997 -1.669998,7.300003 -7.18,6c-0.019997,-2 -0.019997,-4 -0.029999,-6z" fill="#1fb9d8"/>
  <path id="svg_57" d="m12.22,104.199997c-0.190001,-3.379997 -0.41,-6.879997 0.88,-10.110001c0.009999,0.68 0.03,2.030006 0.04,2.710007c-0.200001,2.479996 -0.5,4.939995 -0.92,7.399994z" fill="#b4b8b9"/>
  <path id="svg_58" d="m104,94.919998c0.720001,3.630005 1.019997,7.310005 0.910004,11.029999c-0.520004,-3.009995 -0.940002,-6.019997 -0.910004,-9.07c0,-0.489998 0,-1.469994 0,-1.959999z" fill="#c8cccd"/>
  <path id="svg_59" d="m13.14,96.800003c0.559999,0.629997 1.11,1.269997 1.66,1.909996c3.320001,6.760002 -4.21,22.239998 7.11,21.340004c2.299999,-4.470001 -4.639999,-19.200005 4.08,-16.620003l0.93,0.349998c2.27,5.550003 -4.710001,18.260002 4,19.309998c0.57,0.080002 1.699999,0.240005 2.269999,0.320007c-0.609997,0.209999 -1.819998,0.629997 -2.429998,0.839996c-6.16,-0.879997 -12.25,-2.470001 -17.900001,-5.110001c-0.53,-4.110001 -0.92,-8.239998 -1.049999,-12.379997c0.07,-0.440002 0.21,-1.330002 0.28,-1.770004l0.13,-0.790001c0.42,-2.459999 0.719999,-4.919998 0.92,-7.399994z" fill="#727c7e"/>
  <path id="svg_60" d="m33.970001,97.139999c0.52,-0.029999 1.579998,-0.089996 2.099998,-0.120003c7.91,1.100006 15.900002,1.130005 23.869999,0.970001c2.030003,0.020004 4.070004,0.020004 6.110004,0.040001l-0.130005,0.970001c-10.57,1.980003 -21.289997,-0.510002 -31.899998,-0.870003l-0.049999,-0.989998z" fill="#62a3b4"/>
  <path id="svg_61" d="m97.800003,100.830002c2.110001,-1.240005 4.219994,-2.5 6.199997,-3.950005c-0.029999,3.050003 0.389999,6.060005 0.910004,9.07c0.059998,0.450005 0.189995,1.360001 0.25,1.810005c-0.090004,3.529999 -0.050003,7.119995 -0.760002,10.599998c-8.380005,5.479996 -18.620003,5.229996 -27.970001,7.639999l-14.330002,0l-0.199997,-0.93c0.73,-0.040001 2.189995,-0.099998 2.919998,-0.129997c3.050003,-0.080002 6.07,-0.560005 9.07,-1.090004c0.209999,-5.979996 0.129997,-11.959999 0.120003,-17.939995c0.82,-0.040001 2.449997,-0.120003 3.269997,-0.170006c2.889999,-0.089996 5.739998,-0.529999 8.639999,-0.68c0.18,5.650002 -0.089996,11.300003 0.18,16.950005c3.290001,0.029999 6.57,-0.43 9.730003,-1.300003c0.779999,-6.580002 -1.340004,-13.790001 1.970001,-19.879997z" fill="#727e82"/>
  <path id="svg_62" d="m21.91,120.050003c-11.32,0.899994 -3.789999,-14.580002 -7.11,-21.340004c4.14,1.459999 8.36,2.700005 12.56,3.989998c-0.35,0.18 -1.030001,0.550003 -1.370001,0.730003c-8.719999,-2.580002 -1.780001,12.150002 -4.08,16.620003z" fill="#818f91"/>
  <path id="svg_63" d="m73.809998,104.720001c8.040001,-0.959999 16.090004,-2.029999 23.990005,-3.889999c-3.310005,6.089996 -1.190002,13.299995 -1.970001,19.879997c-3.160004,0.870003 -6.440002,1.330002 -9.730003,1.300003c-0.269997,-5.650002 0,-11.300003 -0.18,-16.950005c-2.900002,0.150002 -5.75,0.590004 -8.639999,0.68c-1.159996,-0.360001 -2.309998,-0.699997 -3.470001,-1.019997z" fill="#95a3a6"/>
  <path id="svg_64" d="m25.99,103.43c0.34,-0.18 1.02,-0.550003 1.370001,-0.730003c1.609999,0.270004 3.219999,0.540001 4.82,0.850006c-2.700001,1.759995 1.290001,1.279999 2.560001,1.789993c2.719997,5.380005 0.509998,11.970001 1.189999,17.740005c-0.68,0.080002 -2.049999,0.25 -2.740002,0.330002c-0.57,-0.080002 -1.699999,-0.240005 -2.269999,-0.320007c-3.299999,-5.629997 3.499998,-16.969994 -4,-19.309998l-0.93,-0.349998z" fill="#c4cbcc"/>
  <path id="svg_65" d="m26.92,103.779999c7.499998,2.340004 0.700001,13.68 4,19.309998c-8.710001,-1.049995 -1.73,-13.759995 -4,-19.309998z" fill="#99a3a6"/>
  <path id="svg_66" d="m34.740002,105.339996c-1.27,-0.509995 -5.260002,-0.029999 -2.560001,-1.789993c6.489998,0.919998 13.040001,1.329994 19.59,1.719994c3.619999,0.260002 7.25,0.530006 10.880001,0.800003c-1.82,5.910004 2.360001,14.449997 -2.700001,18.980003c-8.07,0.309998 -16.09,-0.480003 -24.02,-1.970001c-0.68,-5.770004 1.529999,-12.360001 -1.189999,-17.740005z" fill="#e8e9e9"/>
  <path id="svg_67" d="m2.91,113.959999c0.53,-4.790001 5.21,-7.279999 9.18,-8.970001c-0.07,0.440002 -0.21,1.330002 -0.28,1.770004c-6.33,3.209999 -5.880001,10.439995 1.049999,12.379997c5.650001,2.639999 11.740001,4.230003 17.900001,5.110001c2.960001,0.43 5.969999,0.730003 8.809999,1.75l-9.039999,0c-9.5,-2.910004 -21.64,-3 -27.620001,-12.040001z" fill="#d3d3d3"/>
  <path id="svg_68" d="m51.77,105.269997c7.34,-0.169998 14.689999,-0.309998 22.039997,-0.549995c1.160004,0.32 2.310005,0.659996 3.470001,1.019997c-0.82,0.050003 -2.449997,0.130005 -3.269997,0.170006c-12.640003,-2.510002 -0.040001,16.879997 -9.190002,19.029999c-0.730003,0.029999 -2.189999,0.089996 -2.919998,0.129997c-0.490002,-0.010002 -1.460003,-0.010002 -1.950001,-0.019997c5.060001,-4.530006 0.880001,-13.07 2.700001,-18.980003c-3.630001,-0.269997 -7.260002,-0.540001 -10.880001,-0.800003z" fill="#c5cdce"/>
  <path id="svg_69" d="m64.82,124.940002c9.150002,-2.150002 -3.450001,-21.540001 9.190002,-19.029999c0.009995,5.979996 0.089996,11.959999 -0.120003,17.939995c-3,0.529999 -6.019997,1.010002 -9.07,1.090004z" fill="#9dacaf"/>
  <path id="svg_70" d="m104.910004,105.949997c3.75,1.090004 10.409996,4.57 7.149994,9.080002c-5.829994,8.300003 -17.549995,8.190002 -26.479996,10.970001l-9.150002,0c9.349998,-2.410004 19.589996,-2.160004 27.970001,-7.639999c5.43,-1.830002 5.839996,-8.010002 0.760002,-10.599998c-0.060005,-0.450005 -0.190002,-1.360001 -0.25,-1.810005z" fill="#d4d4d4"/>
  <path id="svg_71" d="m12.86,119.139999c-6.93,-1.940002 -7.38,-9.169998 -1.049999,-12.379997c0.129999,4.139999 0.52,8.269997 1.049999,12.379997z" fill="#acacac"/>
  <path id="svg_72" d="m105.160004,107.760002c5.079994,2.589996 4.669998,8.769997 -0.760002,10.599998c0.709999,-3.480003 0.669998,-7.07 0.760002,-10.599998z" fill="#b1b1b1"/>
  <path id="svg_73" d="m33.189999,123.410004c0.690002,-0.080002 2.060001,-0.25 2.740002,-0.330002c7.93,1.489998 15.950001,2.279999 24.02,1.970001c0.489998,0.009995 1.459999,0.009995 1.950001,0.019997l0.199997,0.93l-22.529999,0c-2.84,-1.019997 -5.849998,-1.32 -8.809999,-1.75c0.610001,-0.209999 1.820002,-0.629997 2.429998,-0.839996z" fill="#9a9a9d"/>
 </g>
</svg>